# File created by Blade
# Date/Time:  Mon Sep 22 15:39:46 2014
# Frame Rate: 120.000 fps
#------------------------------------------------------
:FULLY-SPECIFIED
:DEGREES
3901
root 0.101905 37.011929 2.895895 3.239613 -22.567029 -1.694126
RightUpLeg 4.906850 10.955745 1.908955
RightLeg -5.710618 -0.000000 0.000000
RightFoot -10.277288 -11.941661 14.795551
RightToeBase 14.517510 -0.000000 -0.000000
LeftUpLeg 9.804692 17.267407 7.416889
LeftLeg -4.001677 -0.000000 0.000000
LeftFoot -11.778881 17.037188 -21.950570
LeftToeBase 6.715078 -0.000000 -0.000000
Spine 5.521391 -39.496884 -12.299000
RightShoulder -13.257783 -11.529928 -24.907062
RightArm -209.463929 109.355655 -161.598273
RightForeArm 92.032332 -0.000000 46.831522
RightHand 24.396631 -0.000000 -15.138456
RightHandThumb1 -24.326973 -0.000000 -32.862282
LeftShoulder -19.013082 45.155228 -2.659822
LeftArm 22.000209 0.705018 -70.630346
LeftForeArm 15.989276 -0.000000 35.982762
LeftHand -16.779405 -0.000000 -9.970896
LeftHandThumb1 -26.253704 0.000000 33.147579
Head 6.803212 -33.546479 6.823071
3902
root 0.095006 37.012540 2.886988 3.199503 -22.709431 -1.715942
RightUpLeg 4.923801 11.048730 1.938928
RightLeg -5.688121 -0.000000 0.000000
RightFoot -10.279328 -11.886894 14.855087
RightToeBase 14.588216 -0.000000 -0.000000
LeftUpLeg 9.888885 17.346669 7.456812
LeftLeg -4.024401 -0.000000 0.000000
LeftFoot -11.832594 17.103941 -22.031868
LeftToeBase 6.877462 -0.000000 -0.000000
Spine 5.522357 -39.525108 -12.299737
RightShoulder -13.275782 -11.602421 -24.992181
RightArm -211.643748 108.419895 -163.723392
RightForeArm 90.225111 -0.000000 50.433995
RightHand 24.443765 -0.000000 -15.650778
RightHandThumb1 -24.326973 -0.000000 -32.862282
LeftShoulder -19.055222 45.236685 -2.715110
LeftArm 21.975839 0.811967 -70.652338
LeftForeArm 16.079159 0.000000 35.902232
LeftHand -16.800109 -0.000000 -10.024747
LeftHandThumb1 -26.253704 0.000000 33.147579
Head 6.976568 -33.431668 6.637732
3903
root 0.088303 37.013517 2.878045 3.150435 -22.865691 -1.743376
RightUpLeg 4.948414 11.129219 1.974753
RightLeg -5.658152 -0.000000 0.000000
RightFoot -10.247607 -11.831474 14.834853
RightToeBase 14.516998 -0.000000 -0.000000
LeftUpLeg 9.981678 17.438107 7.505319
LeftLeg -4.028734 -0.000000 0.000000
LeftFoot -11.802139 17.154616 -21.984162
LeftToeBase 6.760685 -0.000000 -0.000000
Spine 5.526195 -39.553751 -12.283418
RightShoulder -13.303449 -11.644002 -25.088567
RightArm -214.072050 107.465259 -166.040282
RightForeArm 88.628837 -0.000000 54.393345
RightHand 24.420359 0.000000 -15.820401
RightHandThumb1 -24.326973 -0.000000 -32.862282
LeftShoulder -19.115003 45.303877 -2.801369
LeftArm 21.940536 0.921031 -70.634892
LeftForeArm 16.136102 -0.000000 35.844836
LeftHand -16.647045 -0.000000 -10.275557
LeftHandThumb1 -26.253704 0.000000 33.147579
Head 7.173938 -33.315258 6.393800
3904
root 0.079881 37.014847 2.869521 3.089736 -23.031752 -1.781189
RightUpLeg 4.983506 11.208363 2.022929
RightLeg -5.619029 -0.000000 0.000000
RightFoot -10.218706 -11.751671 14.837981
RightToeBase 14.537144 -0.000000 -0.000000
LeftUpLeg 10.094871 17.471230 7.564575
LeftLeg -4.050054 -0.000000 0.000000
LeftFoot -11.866194 17.266944 -22.105186
LeftToeBase 6.843962 -0.000000 -0.000000
Spine 5.537576 -39.575050 -12.254578
RightShoulder -13.384438 -11.635177 -25.185276
RightArm -216.555702 106.520456 -168.369454
RightForeArm 87.265586 -0.000000 58.728597
RightHand 24.231531 0.000000 -15.231126
RightHandThumb1 -24.326973 -0.000000 -32.862282
LeftShoulder -19.187208 45.372421 -2.909569
LeftArm 21.906844 1.008796 -70.610183
LeftForeArm 16.293388 -0.000000 35.817045
LeftHand -16.660068 -0.000000 -10.494150
LeftHandThumb1 -26.253704 0.000000 33.147579
Head 7.339655 -33.154185 6.151861
3905
root 0.072853 37.015735 2.862060 3.029211 -23.175697 -1.789404
RightUpLeg 5.012894 11.247615 2.043778
RightLeg -5.583889 -0.000000 0.000000
RightFoot -10.186422 -11.676463 14.815211
RightToeBase 14.540976 -0.000000 -0.000000
LeftUpLeg 10.189035 17.523149 7.590410
LeftLeg -4.060278 -0.000000 0.000000
LeftFoot -11.876357 17.374291 -22.101827
LeftToeBase 6.827353 -0.000000 -0.000000
Spine 5.508948 -39.655948 -12.224727
RightShoulder -13.456761 -11.756332 -25.237094
RightArm -219.132266 105.472198 -170.808864
RightForeArm 85.864983 -0.000000 63.382403
RightHand 24.257600 -0.000000 -14.572953
RightHandThumb1 -24.326973 -0.000000 -32.862282
LeftShoulder -19.292929 45.430593 -3.050199
LeftArm 21.860318 1.110692 -70.573667
LeftForeArm 16.419895 -0.000000 35.768019
LeftHand -16.652422 -0.000000 -10.662401
LeftHandThumb1 -26.253704 0.000000 33.147579
Head 7.560121 -32.996055 5.828891
3906
root 0.061808 37.018176 2.852199 2.970083 -23.329875 -1.832578
RightUpLeg 5.050159 11.319369 2.107696
RightLeg -5.546435 -0.000000 0.000000
RightFoot -10.142269 -11.621267 14.811982
RightToeBase 14.532474 -0.000000 -0.000000
LeftUpLeg 10.294438 17.580264 7.660245
LeftLeg -4.061961 -0.000000 0.000000
LeftFoot -11.906129 17.460222 -22.150127
LeftToeBase 6.892260 -0.000000 -0.000000
Spine 5.486970 -39.713912 -12.163859
RightShoulder -13.582328 -11.912490 -25.246452
RightArm -221.692249 104.432246 -173.245050
RightForeArm 84.541528 -0.000000 68.367401
RightHand 24.013361 -0.000000 -13.613811
RightHandThumb1 -24.326973 -0.000000 -32.862282
LeftShoulder -19.371134 45.498655 -3.165050
LeftArm 21.816728 1.200663 -70.554234
LeftForeArm 16.499835 0.000000 35.739045
LeftHand -16.671846 -0.000000 -10.834651
LeftHandThumb1 -26.253704 0.000000 33.147579
Head 7.809026 -32.835465 5.482116
3907
root 0.052202 37.019682 2.841505 2.910043 -23.510424 -1.864926
RightUpLeg 5.075708 11.391704 2.156118
RightLeg -5.500854 -0.000000 0.000000
RightFoot -10.120071 -11.536853 14.809544
RightToeBase 14.618737 -0.000000 -0.000000
LeftUpLeg 10.404102 17.691768 7.718998
LeftLeg -4.067884 -0.000000 0.000000
LeftFoot -11.911619 17.549439 -22.149868
LeftToeBase 6.849874 -0.000000 -0.000000
Spine 5.440029 -39.739529 -12.092863
RightShoulder -13.716520 -12.087941 -25.230609
RightArm -224.424883 103.460680 -175.907570
RightForeArm 83.466530 0.000000 73.597357
RightHand 23.834266 0.000000 -12.492288
RightHandThumb1 -24.326973 -0.000000 -32.862282
LeftShoulder -19.428695 45.561638 -3.266914
LeftArm 21.757425 1.272865 -70.538795
LeftForeArm 16.656548 -0.000000 35.737795
LeftHand -16.577618 -0.000000 -11.072598
LeftHandThumb1 -26.253704 0.000000 33.147579
Head 8.068631 -32.645670 5.123533
3908
root 0.043257 37.020591 2.828244 2.843782 -23.716031 -1.893642
RightUpLeg 5.099845 11.496260 2.201376
RightLeg -5.452739 -0.000000 0.000000
RightFoot -10.081613 -11.478509 14.776388
RightToeBase 14.576041 -0.000000 -0.000000
LeftUpLeg 10.508386 17.784871 7.775735
LeftLeg -4.051569 -0.000000 0.000000
LeftFoot -11.948933 17.634464 -22.197773
LeftToeBase 6.834762 -0.000000 -0.000000
Spine 5.406681 -39.765223 -12.037496
RightShoulder -13.824654 -12.290887 -25.232976
RightArm -227.277607 102.540838 -178.686787
RightForeArm 82.433477 -0.000000 79.041769
RightHand 23.600982 -0.000000 -11.378315
RightHandThumb1 -24.326973 -0.000000 -32.862282
LeftShoulder -19.516254 45.634844 -3.373310
LeftArm 21.706836 1.324229 -70.553095
LeftForeArm 16.714640 -0.000000 35.765510
LeftHand -16.753501 -0.000000 -11.023523
LeftHandThumb1 -26.253704 0.000000 33.147579
Head 8.287046 -32.364646 4.797070
